<?xml version="1.0" encoding="UTF-8" standalone="no"?>
<svg
   xmlns:dc="http://purl.org/dc/elements/1.1/"
   xmlns:cc="http://creativecommons.org/ns#"
   xmlns:rdf="http://www.w3.org/1999/02/22-rdf-syntax-ns#"
   xmlns:svg="http://www.w3.org/2000/svg"
   xmlns="http://www.w3.org/2000/svg"
   xmlns:sodipodi="http://sodipodi.sourceforge.net/DTD/sodipodi-0.dtd"
   xmlns:inkscape="http://www.inkscape.org/namespaces/inkscape"
   id="Layer_1"
   viewBox="0 0 1916.3 610.11525"
   width="2500"
   height="795.70001"
   version="1.1"
   sodipodi:docname="ledger.svg"
   inkscape:version="0.92.3 (2405546, 2018-03-11)">
  <metadata
     id="metadata911">
    <rdf:RDF>
      <cc:Work
         rdf:about="">
        <dc:format>image/svg+xml</dc:format>
        <dc:type
           rdf:resource="http://purl.org/dc/dcmitype/StillImage" />
        <dc:title></dc:title>
      </cc:Work>
    </rdf:RDF>
  </metadata>
  <defs
     id="defs909" />
  <sodipodi:namedview
     pagecolor="#ffffff"
     bordercolor="#666666"
     borderopacity="1"
     objecttolerance="10"
     gridtolerance="10"
     guidetolerance="10"
     inkscape:pageopacity="0"
     inkscape:pageshadow="2"
     inkscape:window-width="1853"
     inkscape:window-height="1025"
     id="namedview907"
     showgrid="false"
     inkscape:zoom="0.35355339"
     inkscape:cx="1226.4881"
     inkscape:cy="330.38596"
     inkscape:window-x="67"
     inkscape:window-y="27"
     inkscape:window-maximized="1"
     inkscape:current-layer="Layer_1" />
  <style
     id="style899">.st0{fill:#333745}</style>
  <g
     id="squares_1_"
     transform="translate(0,93.315296)">
    <path
       class="st0"
       d="M 578.2,392.7 V 24.3 h 25.6 v 344.1 h 175.3 v 24.3 H 578.2 Z m 327.5,5.1 C 866,397.8 835.3,385 812.3,360.7 790.6,336.4 779,301.9 779,257.1 c 0,-43.5 10.2,-79.3 32,-104.9 21.7,-26.9 49.9,-39.7 87,-39.7 32,0 57.6,11.5 76.8,33.3 19.2,23 28.1,53.7 28.1,92.1 v 20.5 H 804.6 c 0,37.1 9,66.5 26.9,85.7 16.6,20.5 42.2,29.4 74.2,29.4 15.3,0 29.4,-1.3 40.9,-3.8 11.5,-2.6 26.9,-6.4 44.8,-14.1 v 24.3 c -15.3,6.4 -29.4,11.5 -42.2,14.1 -14.3,2.6 -28.9,3.9 -43.5,3.8 z M 898,135.6 c -26.9,0 -47.3,9 -64,25.6 -15.3,17.9 -25.6,42.2 -28.1,75.5 h 168.9 c 0,-32 -6.4,-56.3 -20.5,-74.2 -12.8,-18 -32,-26.9 -56.3,-26.9 z m 238,-21.8 c 19.2,0 37.1,3.8 51.2,10.2 14.1,7.7 26.9,19.2 38.4,37.1 h 1.3 c -1.3,-21.7 -1.3,-42.2 -1.3,-62.7 V 0 h 24.3 v 392.7 h -16.6 l -6.4,-42.2 c -20.5,30.7 -51.2,47.3 -89.6,47.3 -38.4,0 -66.5,-11.5 -87,-35.8 -20.5,-23 -29.4,-57.6 -29.4,-102.3 0,-47.3 10.2,-83.2 29.4,-108.7 19.2,-25.6 48.6,-37.2 85.7,-37.2 z m 0,21.8 c -29.4,0 -52.4,10.2 -67.8,32 -15.3,20.5 -23,51.2 -23,92.1 0,78 30.7,116.4 90.8,116.4 30.7,0 53.7,-9 67.8,-26.9 14.1,-17.9 21.7,-47.3 21.7,-89.6 v -3.8 c 0,-42.2 -7.7,-72.9 -21.7,-90.8 C 1191,144.5 1168,135.6 1136,135.6 Z M 1515.9,119 v 17.9 l -56.3,3.8 c 15.3,19.2 23,39.7 23,61.4 0,26.9 -9,47.3 -26.9,64 -17.9,16.6 -40.9,24.3 -70.4,24.3 -12.8,0 -21.7,0 -25.6,-1.3 -10.2,5.1 -17.9,11.5 -23,17.9 -5.1,7.7 -7.7,14.1 -7.7,23 0,8.9 3.8,15.3 10.2,19.2 6.4,3.8 17.9,6.4 33.3,6.4 h 47.3 c 29.4,0 52.4,6.4 67.8,17.9 15.4,11.5 24.3,29.4 24.3,53.7 0,29.4 -11.5,51.2 -34.5,66.5 -23,15.3 -56.3,23 -99.8,23 -34.5,0 -61.4,-6.4 -80.6,-20.5 -19.2,-12.8 -28.1,-32 -28.1,-55 0,-19.2 6.4,-34.5 17.9,-47.3 11.5,-12.8 28.1,-20.5 47.3,-25.6 -7.7,-3.8 -15.3,-9 -19.2,-15.3 -5,-6.2 -7.7,-13.8 -7.7,-21.7 0,-17.9 11.5,-34.5 34.5,-48.6 -15.3,-6.4 -28.1,-16.6 -37.1,-30.7 -9,-14.1 -12.8,-30.7 -12.8,-48.6 0,-26.9 9,-49.9 25.6,-66.5 17.9,-16.6 40.9,-24.3 70.4,-24.3 17.9,0 32,1.3 42.2,5.1 h 85.7 v 1.3 z m -222.6,319.8 c 0,37.1 28.1,56.3 84.4,56.3 71.6,0 107.5,-23 107.5,-69.1 0,-16.6 -5.1,-28.1 -16.6,-35.8 -11.5,-7.7 -29.4,-11.5 -55,-11.5 h -44.8 c -49.9,1.2 -75.5,20.4 -75.5,60.1 z m 21.8,-235.4 c 0,21.7 6.4,37.1 19.2,49.9 12.8,11.5 29.4,17.9 51.2,17.9 23,0 40.9,-6.4 52.4,-17.9 12.8,-11.5 17.9,-28.1 17.9,-49.9 0,-23 -6.4,-40.9 -19.2,-52.4 -12.8,-11.5 -29.4,-17.9 -52.4,-17.9 -21.7,0 -39.7,6.4 -51.2,19.2 -12.8,11.4 -17.9,29.3 -17.9,51.1 z"
       id="path901"
       inkscape:connector-curvature="0"
       style="fill:#333745" />
    <path
       class="st0"
       d="m 1640,397.8 c -39.7,0 -70.4,-12.8 -93.4,-37.1 -21.7,-24.3 -33.3,-58.8 -33.3,-103.6 0,-43.5 10.2,-79.3 32,-104.9 21.7,-26.9 49.9,-39.7 87,-39.7 32,0 57.6,11.5 76.8,33.3 19.2,23 28.1,53.7 28.1,92.1 v 20.5 h -197 c 0,37.1 9,66.5 26.9,85.7 16.6,20.5 42.2,29.4 74.2,29.4 15.3,0 29.4,-1.3 40.9,-3.8 11.5,-2.6 26.9,-6.4 44.8,-14.1 v 24.3 c -15.3,6.4 -29.4,11.5 -42.2,14.1 -14.1,2.6 -28.2,3.8 -44.8,3.8 z m -6.4,-262.2 c -26.9,0 -47.3,9 -64,25.6 -15.3,17.9 -25.6,42.2 -28.1,75.5 h 168.9 c 0,-32 -6.4,-56.3 -20.5,-74.2 -12.8,-18 -32,-26.9 -56.3,-26.9 z m 245.6,-21.8 c 11.5,0 24.3,1.3 37.1,3.8 l -5.1,24.3 c -11.8,-2.6 -23.8,-3.9 -35.8,-3.8 -23,0 -42.2,10.2 -57.6,29.4 -15.3,20.5 -23,44.8 -23,75.5 v 149.7 h -25.6 V 119 h 21.7 l 2.6,49.9 h 1.3 c 11.5,-20.5 23,-34.5 35.8,-42.2 15.4,-9 30.7,-12.9 48.6,-12.9 z M 333.9,12.8 h -183 V 258.4 H 396.5 V 76.7 C 396.6,42.2 368.4,12.8 333.9,12.8 Z m -239.2,0 H 64 c -34.5,0 -64,28.1 -64,64 v 30.7 H 94.7 Z M 0,165 h 94.7 v 94.7 H 0 Z m 301.9,245.6 h 30.7 c 34.5,0 64,-28.1 64,-64 V 316 H 301.9 Z M 150.9,316 h 94.7 v 94.7 H 150.9 Z M 0,316 v 30.7 c 0,34.5 28.1,64 64,64 H 94.7 V 316 Z"
       id="path903"
       inkscape:connector-curvature="0"
       style="fill:#333745" />
  </g>
</svg>
